<?xml version="1.0" standalone="no"?>
<!DOCTYPE svg PUBLIC "-//W3C//DTD SVG 20010904//EN"
 "http://www.w3.org/TR/2001/REC-SVG-20010904/DTD/svg10.dtd">
<svg version="1.0" xmlns="http://www.w3.org/2000/svg"
 width="155.000000pt" height="171.000000pt" viewBox="0 0 155.000000 171.000000"
 preserveAspectRatio="xMidYMid meet">

<g transform="translate(0.000000,171.000000) scale(0.100000,-0.100000)"
fill="#000000" stroke="none">
<path d="M515 1530 c-140 -10 -267 -28 -278 -39 -4 -4 -6 -244 -5 -532 3 -518
3 -525 25 -565 27 -51 87 -94 157 -112 33 -9 28 -15 121 118 13 19 56 80 94
135 39 55 86 124 106 153 20 28 40 52 44 52 5 0 14 -13 21 -30 11 -27 10 -33
-19 -72 -36 -49 -38 -58 -12 -58 10 0 31 16 46 36 l27 35 24 -35 c14 -21 33
-36 44 -36 25 0 25 11 1 41 -43 57 -45 67 -12 111 36 49 38 58 12 58 -11 0
-30 -14 -42 -31 l-22 -32 -23 29 c-22 27 -23 29 -6 49 10 11 31 40 47 65 17
25 55 79 85 120 30 41 71 98 90 126 52 77 148 213 181 259 47 64 81 117 77
121 -2 2 -58 10 -123 19 -142 18 -505 27 -660 15z m195 -135 c0 -68 -2 -75
-20 -75 -18 0 -20 7 -20 75 0 68 2 75 20 75 18 0 20 -7 20 -75z m265 35 c-5
-8 -11 -8 -21 1 -12 10 -12 14 -2 20 16 10 33 -5 23 -21z m-437 3 c2 -8 -6
-13 -21 -13 -25 0 -57 -23 -57 -40 0 -21 35 -42 62 -38 22 4 28 1 26 -11 -7
-37 -81 -24 -103 19 -14 27 -14 33 0 59 8 16 20 32 27 35 22 8 61 2 66 -11z
m103 -33 c24 -13 26 -65 3 -74 -46 -18 -84 1 -84 41 0 36 42 53 81 33z m163
-6 c11 -28 7 -34 -25 -34 -18 0 -28 -4 -24 -10 3 -6 18 -7 33 -4 26 6 26 6 10
-12 -26 -27 -72 -9 -76 30 -2 16 2 32 10 37 22 14 65 10 72 -7z m116 -37 c0
-59 -12 -77 -51 -77 -32 0 -60 27 -40 40 9 5 10 10 2 14 -15 9 -14 49 1 64 7
7 29 12 50 12 l38 0 0 -53z m54 35 c-1 -7 -2 -25 -2 -42 -3 -47 -32 -40 -32 8
0 21 3 42 7 46 10 9 28 1 27 -12z m106 -6 c19 -24 8 -60 -23 -70 -30 -11 -53
-2 -71 27 -24 38 64 78 94 43z m-450 -616 c0 -56 -3 -70 -15 -70 -12 0 -15 14
-15 70 0 56 3 70 15 70 12 0 15 -14 15 -70z m-221 45 c-1 -5 -10 -9 -21 -7
-28 5 -22 -15 10 -30 36 -18 40 -52 8 -73 -19 -13 -29 -14 -45 -5 -12 6 -21
14 -21 19 0 15 13 21 26 10 13 -10 34 -5 34 9 0 4 -13 13 -30 20 -31 14 -39
39 -18 60 15 15 60 12 57 -3z m69 3 c-6 -18 -28 -21 -28 -4 0 9 7 16 16 16 9
0 14 -5 12 -12z m93 -38 c16 0 19 -7 19 -47 0 -27 -4 -53 -8 -59 -12 -18 -50
-26 -72 -14 -29 15 -25 34 5 26 14 -4 31 -3 38 1 7 5 -1 10 -23 13 -30 4 -35
9 -38 35 -4 31 22 60 46 50 8 -3 22 -5 33 -5z m153 0 c28 -10 35 -47 14 -68
-18 -18 -75 -15 -82 4 -11 28 -6 53 12 63 22 13 25 13 56 1z m-254 -40 c0 -22
-4 -40 -10 -40 -5 0 -10 18 -10 40 0 22 5 40 10 40 6 0 10 -18 10 -40z"/>
<path d="M593 1374 c-8 -21 13 -42 28 -27 13 13 5 43 -11 43 -6 0 -13 -7 -17
-16z"/>
<path d="M758 1383 c7 -3 16 -2 19 1 4 3 -2 6 -13 5 -11 0 -14 -3 -6 -6z"/>
<path d="M853 1374 c-8 -21 13 -42 28 -27 13 13 5 43 -11 43 -6 0 -13 -7 -17
-16z"/>
<path d="M850 1310 c0 -5 6 -10 14 -10 8 0 18 5 21 10 3 6 -3 10 -14 10 -12 0
-21 -4 -21 -10z"/>
<path d="M1020 1360 c0 -15 5 -20 18 -18 9 2 17 10 17 18 0 8 -8 16 -17 18
-13 2 -18 -3 -18 -18z"/>
<path d="M522 743 c2 -10 10 -18 18 -18 22 0 18 29 -3 33 -14 3 -18 -1 -15
-15z"/>
<path d="M675 750 c-4 -7 -3 -16 3 -22 14 -14 45 -2 40 15 -6 16 -34 21 -43 7z"/>
<path d="M960 784 c0 -3 14 -26 31 -51 l30 -46 -36 -51 c-35 -50 -35 -51 -13
-55 14 -2 27 4 33 14 5 10 17 26 26 38 15 19 16 19 37 -17 16 -27 28 -36 47
-36 29 0 29 -2 -17 67 l-29 42 36 51 c35 49 35 50 12 50 -25 0 -57 -28 -57
-48 0 -22 -21 -12 -38 18 -11 19 -25 30 -39 30 -13 0 -23 -3 -23 -6z"/>
<path d="M1167 784 c-4 -4 -7 -52 -7 -106 l0 -98 25 0 26 0 -3 102 c-2 83 -6
103 -18 106 -9 1 -19 0 -23 -4z"/>
<path d="M861 513 c-1 -34 3 -43 15 -43 12 0 14 3 6 13 -6 6 -12 26 -15 42 -3
24 -4 22 -6 -12z"/>
<path d="M917 515 c-21 -44 -21 -51 -2 -35 8 7 24 10 35 7 25 -6 26 10 2 41
l-18 23 -17 -36z m28 -5 c3 -5 -1 -10 -10 -10 -9 0 -13 5 -10 10 3 6 8 10 10
10 2 0 7 -4 10 -10z"/>
<path d="M986 519 c-8 -43 -8 -51 4 -44 6 3 10 16 11 28 1 20 2 19 13 -6 l12
-28 11 23 11 23 11 -25 c9 -22 10 -20 5 15 -8 51 -10 52 -27 18 l-15 -28 -7
28 c-9 36 -21 34 -29 -4z"/>
<path d="M1080 516 c0 -19 5 -38 10 -41 6 -3 10 -1 10 5 0 7 10 20 23 31 19
16 20 20 7 29 -32 21 -50 12 -50 -24z m35 15 c3 -5 1 -12 -5 -16 -5 -3 -10 1
-10 9 0 18 6 21 15 7z"/>
<path d="M1150 524 c-15 -37 -13 -42 15 -36 16 3 25 0 25 -9 0 -7 3 -10 6 -6
8 7 -18 77 -28 77 -5 0 -13 -12 -18 -26z m30 -14 c0 -5 -4 -10 -10 -10 -5 0
-10 5 -10 10 0 6 5 10 10 10 6 0 10 -4 10 -10z"/>
</g>
</svg>
